0
SECTION
2
HEADER
9
$INSUNITS
70
4
0
ENDSEC
0
SECTION
2
ENTITIES
0
LINE
8
Edge_Cuts
10
-18.0
20
-20.0
30
0.0
11
18.0
21
-20.0
31
0.0
0
ARC
8
Edge_Cuts
10
18.0
20
-18.0
30
0.0
40
2.0
50
270.0
51
360.0
0
LINE
8
Edge_Cuts
10
20.0
20
-18.0
30
0.0
11
20.0
21
18.0
31
0.0
0
ARC
8
Edge_Cuts
10
18.0
20
18.0
30
0.0
40
2.0
50
0.0
51
90.0
0
LINE
8
Edge_Cuts
10
18.0
20
20.0
30
0.0
11
-18.0
21
20.0
31
0.0
0
ARC
8
Edge_Cuts
10
-18.0
20
18.0
30
0.0
40
2.0
50
90.0
51
180.0
0
LINE
8
Edge_Cuts
10
-20.0
20
18.0
30
0.0
11
-20.0
21
-18.0
31
0.0
0
ARC
8
Edge_Cuts
10
-18.0
20
-18.0
30
0.0
40
2.0
50
180.0
51
270.0
0
ENDSEC
0
EOF
